<svg width="26" height="26" viewBox="0 0 26 26" fill="none" xmlns="http://www.w3.org/2000/svg">
<path d="M24.617 0H1.38298C0.619298 0 0 0.619298 0 1.38298V24.617C0 25.3807 0.619298 26 1.38298 26H24.617C25.381 26 26 25.3807 26 24.617V1.38298C26 0.619298 25.381 0 24.617 0ZM18.5126 5.90919L16.5139 5.91002C14.9472 5.91002 14.6438 6.65462 14.6438 7.74745V10.1569H18.3809L18.3798 13.9307H14.6438V23.6149H10.7463V13.9307H7.48745V10.1569H10.7463V7.37377C10.7463 4.14396 12.7193 2.38509 15.6 2.38509L18.5126 2.38979V5.90919Z" fill="#10158C"/>
</svg>
