<svg width="170" height="166" viewBox="0 0 170 166" fill="none" xmlns="http://www.w3.org/2000/svg">
<path d="M32.4022 148.561C46.9509 159.699 64.2562 165.585 82.4446 165.584H82.4458C86.1106 165.584 89.8237 165.338 93.4808 164.852C115.35 161.947 134.779 150.701 148.189 133.183C156.348 122.525 161.834 109.937 164.052 96.7802C164.438 94.4933 162.896 92.3263 160.61 91.9405L149.567 90.0781C148.467 89.8933 147.341 90.1515 146.434 90.7971C145.526 91.4427 144.912 92.4221 144.727 93.5207C143.037 103.542 138.853 113.137 132.628 121.269C122.4 134.63 107.581 143.209 90.8994 145.424C88.103 145.796 85.2657 145.984 82.4676 145.984C68.6048 145.984 55.4123 141.494 44.3141 132.998C30.9536 122.77 22.3751 107.951 20.16 91.2708C17.9442 74.5915 22.3572 58.0471 32.5848 44.6861C44.5907 29.0035 62.8508 20.0095 82.6832 20.0095C96.6182 20.0095 109.832 24.4869 120.897 32.9568C124.565 35.7644 127.857 38.9007 130.767 42.3382L110.086 38.6873C108.99 38.493 107.861 38.7439 106.948 39.3822C106.034 40.0211 105.414 40.996 105.22 42.093L103.273 53.1212C102.87 55.4053 104.395 57.5835 106.678 57.9867L156.307 66.7482C156.55 66.7914 156.793 66.8121 157.037 66.8121C157.893 66.8121 158.734 66.5506 159.445 66.0533C160.358 65.4144 160.979 64.4396 161.172 63.3426L169.933 13.714C170.337 11.4299 168.812 9.25173 166.528 8.848L155.5 6.90104C153.213 6.4962 151.037 8.02263 150.635 10.3067L146.947 31.1929C142.811 26.0626 138.061 21.4145 132.81 17.3946C118.299 6.28622 100.971 0.414551 82.6966 0.414551C56.7019 0.414551 32.7651 12.2088 17.0231 32.7725C3.61391 50.2912 -2.17152 71.9827 0.732955 93.8516C3.63799 115.722 14.8852 135.151 32.4022 148.561Z" fill="#619409"/>
</svg>
