<svg width="169" height="35" viewBox="0 0 169 35" fill="none" xmlns="http://www.w3.org/2000/svg">
<path d="M15.1718 0L18.5781 12.0922L29.6011 12.0922L20.6833 19.5656L24.0896 31.6578L15.1718 24.1844L6.25405 31.6578L9.66033 19.5656L0.742561 12.0922L11.7655 12.0922L15.1718 0Z" fill="#FDC709"/>
<path d="M49.6532 0L53.0595 12.0922L64.0825 12.0922L55.1647 19.5656L58.571 31.6578L49.6532 24.1844L40.7354 31.6578L44.1417 19.5656L35.2239 12.0922L46.2469 12.0922L49.6532 0Z" fill="#FDC709"/>
<path d="M84.1346 0L87.5409 12.0922L98.5638 12.0922L89.6461 19.5656L93.0524 31.6578L84.1346 24.1844L75.2168 31.6578L78.6231 19.5656L69.7053 12.0922L80.7283 12.0922L84.1346 0Z" fill="#FDC709"/>
<path d="M118.616 0L122.022 12.0922L133.045 12.0922L124.127 19.5656L127.534 31.6578L118.616 24.1844L109.698 31.6578L113.104 19.5656L104.187 12.0922L115.21 12.0922L118.616 0Z" fill="#FDC709"/>
<path d="M153.097 0L156.504 12.0922L167.527 12.0922L158.609 19.5656L162.015 31.6578L153.097 24.1844L144.18 31.6578L147.586 19.5656L138.668 12.0922L149.691 12.0922L153.097 0Z" fill="#FDC709"/>
</svg>
