<svg width="19" height="19" viewBox="0 0 19 19" fill="none" xmlns="http://www.w3.org/2000/svg">
<path d="M11.5926 9.5L18.6965 2.39539C18.8919 2.19982 18.9997 1.9389 19 1.66068C19 1.3823 18.8922 1.12107 18.6965 0.925808L18.0739 0.303402C17.8782 0.107365 17.6173 0 17.3388 0C17.0608 0 16.7999 0.107365 16.6041 0.303402L9.50031 7.40755L2.39616 0.303402C2.20076 0.107365 1.9397 0 1.66134 0C1.38329 0 1.12224 0.107365 0.926829 0.303402L0.304 0.925808C-0.101333 1.33117 -0.101333 1.9905 0.304 2.39539L7.40799 9.5L0.304 16.6043C0.108439 16.8002 0.000772337 17.0611 0.000772337 17.3393C0.000772337 17.6175 0.108439 17.8785 0.304 18.0742L0.926675 18.6966C1.12208 18.8925 1.38329 19 1.66119 19C1.93954 19 2.2006 18.8925 2.39601 18.6966L9.50015 11.5923L16.604 18.6966C16.7997 18.8925 17.0606 19 17.3387 19C17.6169 19 17.8781 18.8925 18.0738 18.6966L18.6963 18.0742C18.8917 17.8786 18.9995 17.6175 18.9995 17.3393C18.9995 17.0611 18.8917 16.8002 18.6963 16.6045L11.5926 9.5Z" fill="#040404"/>
</svg>
