<svg width="52" height="38" viewBox="0 0 52 38" fill="none" xmlns="http://www.w3.org/2000/svg">
<path d="M21.0058 37.4347C20.565 37.4347 20.1363 37.2058 19.9001 36.7966C19.5478 36.1867 19.757 35.4067 20.3669 35.0544L48.1734 19.0002L20.3669 2.94622C19.7568 2.59404 19.5478 1.81393 19.9001 1.20385C20.2523 0.593764 21.0325 0.384832 21.6425 0.737005L51.3622 17.8956C51.7569 18.1234 52 18.5445 52 19.0002C52 19.456 51.7569 19.877 51.3622 20.1048L21.6425 37.2635C21.4416 37.3796 21.2222 37.4347 21.0058 37.4347Z" fill="black"/>
<path d="M1.27702 37.4347C0.836203 37.4347 0.407499 37.2058 0.171144 36.7966C-0.181156 36.1867 0.02803 35.4067 0.637987 35.0544L28.4445 19.0002L0.637987 2.94622C0.0279024 2.59404 -0.181156 1.81393 0.171144 1.20385C0.523444 0.593764 1.30368 0.384832 1.91351 0.737005L31.6333 17.8956C32.0279 18.1234 32.271 18.5445 32.271 19.0002C32.271 19.456 32.0279 19.877 31.6333 20.1048L1.91351 37.2635C1.71274 37.3796 1.49348 37.4347 1.27702 37.4347Z" fill="black"/>
</svg>
